<svg xmlns="http://www.w3.org/2000/svg" xmlns:xlink="http://www.w3.org/1999/xlink" width="500" zoomAndPan="magnify" viewBox="0 0 375 374.999991" height="500" preserveAspectRatio="xMidYMid meet" version="1.0"><defs><clipPath id="f8e2e13f05"><path d="M 5 28 L 373 28 L 373 349.828125 L 5 349.828125 Z M 5 28 " clip-rule="nonzero"/></clipPath></defs><g clip-path="url(#f8e2e13f05)"><path fill="#ff66c4" d="M 367.558594 258.199219 C 363.914062 261.347656 360.074219 264.273438 356.171875 267.09375 C 346.644531 273.726562 337.332031 280.976562 326.523438 285.644531 C 306.8125 293.867188 284.199219 293.539062 264 287.191406 C 262.273438 212.070312 182.871094 217.992188 154.839844 143.964844 C 154.703125 143.757812 154.605469 143.535156 154.539062 143.300781 C 157.441406 138.464844 159.320312 132.871094 159.984375 127 C 163.367188 106.121094 162.789062 83.691406 154.042969 64.148438 C 148.265625 51.75 139.332031 39.988281 127.546875 32.8125 C 112.96875 25.0625 95.257812 28.75 80.441406 34 C 69.570312 38.800781 61.589844 49.152344 49.453125 51.300781 C 45.234375 52.304688 41.078125 52.042969 36.917969 51.777344 C 32.425781 51.492188 27.921875 51.207031 23.289062 52.515625 C 8.996094 56.757812 4.402344 74.296875 9.601562 87.101562 C 13.324219 96.957031 19.832031 105.710938 27.167969 113.195312 C 41.617188 127.425781 63.371094 133.292969 84.1875 134.820312 C 80.796875 138.976562 77.667969 143.371094 74.953125 147.992188 C 64.199219 166.148438 60.140625 187.578125 61.144531 208.515625 C 60.707031 231.773438 63.84375 264.402344 52.71875 285.089844 C 45.367188 294.726562 31.660156 293.777344 21.164062 297.546875 C 5.523438 301.074219 0.0195312 320.042969 13.210938 330.078125 C 22.164062 337.226562 34.003906 336.90625 44.871094 335.929688 C 67.113281 334.152344 87.070312 322.066406 102.90625 306.914062 C 111.480469 319.742188 123.886719 330.054688 137.3125 337.488281 C 137.640625 337.652344 137.992188 337.726562 138.34375 337.726562 C 139.429688 337.726562 140.515625 337.019531 140.933594 336.015625 C 141.882812 333.660156 139.78125 332.558594 138.027344 331.441406 C 135.796875 329.890625 133.332031 327.992188 130.921875 326.0625 C 122.207031 319.136719 113.707031 311.605469 107.9375 301.953125 C 120.890625 288.179688 130.726562 270.558594 132.597656 251.53125 C 134.460938 236.234375 124.433594 210.886719 105.433594 220.875 C 95.945312 226.441406 91.914062 237.636719 89.769531 247.875 C 85.941406 265.515625 89.386719 284.53125 98.671875 299.964844 C 79.605469 319.152344 51.714844 333.207031 24.265625 327 C 16.253906 324.957031 9.707031 315.417969 16.878906 308.664062 C 22.675781 304.203125 30.484375 303.867188 37.347656 302.039062 C 58.238281 298.5625 64.613281 285.5 67.441406 266.035156 C 72.257812 236.9375 66.5 207.167969 71.707031 178.1875 C 73.984375 166.710938 78.339844 155.628906 84.941406 145.941406 C 86.339844 142.738281 92.136719 138.808594 91.226562 135.175781 C 95.144531 135.289062 98.996094 135.261719 102.714844 135.121094 C 106.148438 146.804688 114.570312 159.285156 127.972656 159.480469 C 137.589844 159.105469 145.554688 154.667969 151.164062 148.003906 C 152.472656 152.464844 155.074219 156.816406 156.777344 160.875 C 183.507812 220.683594 255.734375 220.144531 257.410156 284.9375 C 237.269531 277.683594 218.523438 266.425781 197.636719 261.378906 C 188.414062 260.371094 178.460938 261.015625 170.410156 266.023438 C 160.785156 271.519531 151.046875 279.421875 149.722656 291.160156 C 147.675781 299.777344 150.09375 308.609375 152.921875 316.773438 C 159.40625 335.050781 176.757812 349.25 196.425781 349.875 C 197.191406 349.917969 197.953125 349.933594 198.71875 349.933594 C 209.929688 349.933594 220.785156 345.867188 230.585938 340.648438 C 248.164062 331.71875 261.742188 314.722656 263.671875 294.765625 C 284.148438 300.640625 306.722656 300.484375 326.703125 292.804688 C 343.171875 285.746094 357.621094 274.511719 371.566406 263.421875 C 375.007812 260.84375 370.828125 255.539062 367.535156 258.199219 Z M 97.734375 249.5 C 99.785156 240.839844 102.917969 228.835938 112.929688 226.757812 C 121.246094 226.894531 123.546875 237.542969 124.296875 244.210938 C 125.238281 262.898438 116.398438 281.160156 103.894531 294.644531 C 97.324219 280.722656 94.71875 264.675781 97.734375 249.492188 Z M 153.792969 111.261719 C 152.546875 128.5 149.847656 147.992188 129.492188 151.371094 C 110.640625 150.792969 108.433594 125.820312 105.792969 111.480469 C 104.746094 107.558594 106.457031 99.574219 100.652344 99.574219 C 100.5625 99.574219 100.472656 99.574219 100.382812 99.574219 C 94.230469 100.773438 98.472656 110.550781 98.347656 114.910156 C 99.160156 120.429688 100.183594 125.933594 101.617188 131.328125 C 78.644531 130.363281 52.101562 126.699219 34.078125 111.265625 C 24.042969 101.390625 13.546875 88.628906 13.820312 73.824219 C 14.1875 66.839844 18.878906 59.652344 26.050781 58.324219 C 29.8125 57.835938 33.625 58.0625 37.433594 58.285156 C 42.957031 58.605469 48.484375 58.929688 53.867188 57.089844 C 64.4375 54.445312 72.183594 46.386719 81.550781 41.378906 C 93.363281 36.523438 107.386719 33.824219 119.792969 37.910156 C 129.34375 41.667969 135.675781 50.050781 141.824219 57.976562 C 152.214844 73.570312 155.15625 92.839844 153.792969 111.253906 Z M 202.210938 341.480469 C 185.789062 342.738281 169.859375 332.871094 162.976562 318.023438 C 158.859375 308.964844 156.015625 298.59375 159.234375 288.832031 C 161.546875 282.25 167.304688 277.941406 172.863281 274.160156 C 178.195312 270.296875 184.730469 268.742188 191.242188 268.742188 C 193.355469 268.742188 195.460938 268.90625 197.527344 269.207031 C 218.246094 274.671875 237.050781 285.695312 257.265625 292.710938 C 254.925781 320.441406 228.257812 338.808594 202.210938 341.480469 Z M 202.210938 341.480469 " fill-opacity="1" fill-rule="nonzero"/></g></svg>